<svg xmlns="http://www.w3.org/2000/svg" viewBox="0 0 400 300" role="img" aria-label="翼を広げたイーグルペンダント">
  <defs>
    <linearGradient id="psil" x1="0" y1="0" x2="0.7" y2="1">
      <stop offset="0" stop-color="#f6f8fb"/>
      <stop offset="0.55" stop-color="#d3d7df"/>
      <stop offset="1" stop-color="#a7abb5"/>
    </linearGradient>
    <linearGradient id="pgld" x1="0" y1="0" x2="0.6" y2="1">
      <stop offset="0" stop-color="#efd9a0"/>
      <stop offset="0.55" stop-color="#c9a24b"/>
      <stop offset="1" stop-color="#9a7731"/>
    </linearGradient>
    <radialGradient id="ptq" cx="0.35" cy="0.3" r="0.9">
      <stop offset="0" stop-color="#5fc4bc"/>
      <stop offset="0.6" stop-color="#3aa8a0"/>
      <stop offset="1" stop-color="#25736d"/>
    </radialGradient>
    <radialGradient id="pvig" cx="0.5" cy="0.42" r="0.85">
      <stop offset="0" stop-color="#f4f0e8"/>
      <stop offset="0.75" stop-color="#efeae1"/>
      <stop offset="1" stop-color="#e4ddd0"/>
    </radialGradient>
  </defs>
  <rect width="400" height="300" fill="url(#pvig)"/>
  <ellipse cx="200" cy="272" rx="150" ry="11" fill="#1c1b19" opacity="0.13"/>
<g stroke-linecap="round">
<path d="M188,-6 Q198,36 201,66" fill="none" stroke="#3b332b" stroke-width="6" stroke-linecap="round"/>
<path d="M218,-6 Q208,36 203,66" fill="none" stroke="#453b31" stroke-width="6" stroke-linecap="round"/>
<path d="M142.6,130.3 Q75.3,154.7 26,188.7 Q85.1,178.9 150.4,149.7 Z" fill="url(#psil)" stroke="#3a3d44" stroke-width="1.3" stroke-linejoin="round"/>
<path d="M127.2,147.8 L42.8,181.9" stroke="#6b6f78" stroke-width="0.9" opacity="0.8" fill="none"/>
<path d="M148.5,131.6 Q83.5,146.3 34,172.1 Q89.8,170.1 153.5,150.8 Z" fill="url(#psil)" stroke="#3a3d44" stroke-width="1.3" stroke-linejoin="round"/>
<path d="M132.3,146.1 L50.4,167.8" stroke="#6b6f78" stroke-width="0.9" opacity="0.8" fill="none"/>
<path d="M154.3,133.1 Q92.9,139 44.5,157.2 Q96,162.1 156.7,151.7 Z" fill="url(#psil)" stroke="#3a3d44" stroke-width="1.3" stroke-linejoin="round"/>
<path d="M137.7,144.8 L60,155.1" stroke="#6b6f78" stroke-width="0.9" opacity="0.8" fill="none"/>
<path d="M159.9,134.8 Q103.3,133 57,144.3 Q103.4,155 160.1,152.4 Z" fill="url(#psil)" stroke="#3a3d44" stroke-width="1.3" stroke-linejoin="round"/>
<path d="M143.5,143.7 L71.4,144.2" stroke="#6b6f78" stroke-width="0.9" opacity="0.8" fill="none"/>
<path d="M165.5,136.6 Q114.4,128.5 71.2,133.7 Q111.9,148.9 163.5,153 Z" fill="url(#psil)" stroke="#3a3d44" stroke-width="1.3" stroke-linejoin="round"/>
<path d="M149.6,143 L84.2,135.2" stroke="#6b6f78" stroke-width="0.9" opacity="0.8" fill="none"/>
<path d="M170.9,138.5 Q126,125.4 86.5,125.4 Q121.3,144 167.1,153.5 Z" fill="url(#psil)" stroke="#3a3d44" stroke-width="1.3" stroke-linejoin="round"/>
<path d="M155.8,142.7 L98.1,128.3" stroke="#6b6f78" stroke-width="0.9" opacity="0.8" fill="none"/>
<path d="M176.1,140.5 Q137.8,123.8 102.6,119.7 Q131.3,140.4 170.9,153.9 Z" fill="url(#psil)" stroke="#3a3d44" stroke-width="1.3" stroke-linejoin="round"/>
<path d="M162.2,142.8 L112.6,123.6" stroke="#6b6f78" stroke-width="0.9" opacity="0.8" fill="none"/>
<path d="M181.2,142.6 Q149.5,123.6 119.1,116.5 Q141.7,138.1 174.8,154.2 Z" fill="url(#psil)" stroke="#3a3d44" stroke-width="1.3" stroke-linejoin="round"/>
<path d="M168.6,143.3 L127.3,121" stroke="#6b6f78" stroke-width="0.9" opacity="0.8" fill="none"/>
<path d="M159.1,127.1 Q135.1,135.3 119.7,152 Q142.3,152.4 164.9,140.9 Z" fill="url(#psil)" stroke="#3a3d44" stroke-width="1.1" stroke-linejoin="round"/>
<path d="M155.2,136.9 L125.6,149.5" stroke="#6b6f78" stroke-width="0.9" opacity="0.8" fill="none"/>
<path d="M165.2,128.2 Q141.8,132.2 125.3,145.9 Q146.3,150.2 168.8,142.8 Z" fill="url(#psil)" stroke="#3a3d44" stroke-width="1.1" stroke-linejoin="round"/>
<path d="M160.3,137.2 L131.1,144.4" stroke="#6b6f78" stroke-width="0.9" opacity="0.8" fill="none"/>
<path d="M171.3,129.5 Q149.3,129.7 132.2,140.5 Q150.9,148.2 172.7,144.5 Z" fill="url(#psil)" stroke="#3a3d44" stroke-width="1.1" stroke-linejoin="round"/>
<path d="M165.6,137.6 L137.7,140" stroke="#6b6f78" stroke-width="0.9" opacity="0.8" fill="none"/>
<path d="M177.5,131 Q157.3,127.8 140.1,135.9 Q156.1,146.4 176.5,146 Z" fill="url(#psil)" stroke="#3a3d44" stroke-width="1.1" stroke-linejoin="round"/>
<path d="M171.1,138.1 L145.3,136.3" stroke="#6b6f78" stroke-width="0.9" opacity="0.8" fill="none"/>
<path d="M183.7,132.7 Q165.9,126.7 148.9,132.4 Q161.7,144.9 180.3,147.3 Z" fill="url(#psil)" stroke="#3a3d44" stroke-width="1.1" stroke-linejoin="round"/>
<path d="M176.7,138.8 L153.5,133.4" stroke="#6b6f78" stroke-width="0.9" opacity="0.8" fill="none"/>
<path d="M249.6,149.7 Q314.9,178.9 374,188.7 Q324.7,154.7 257.4,130.3 Z" fill="url(#psil)" stroke="#3a3d44" stroke-width="1.3" stroke-linejoin="round"/>
<path d="M272.8,147.8 L357.2,181.9" stroke="#6b6f78" stroke-width="0.9" opacity="0.8" fill="none"/>
<path d="M246.5,150.8 Q310.2,170.1 366,172.1 Q316.5,146.3 251.5,131.6 Z" fill="url(#psil)" stroke="#3a3d44" stroke-width="1.3" stroke-linejoin="round"/>
<path d="M267.7,146.1 L349.6,167.8" stroke="#6b6f78" stroke-width="0.9" opacity="0.8" fill="none"/>
<path d="M243.3,151.7 Q304,162.1 355.5,157.2 Q307.1,139 245.7,133.1 Z" fill="url(#psil)" stroke="#3a3d44" stroke-width="1.3" stroke-linejoin="round"/>
<path d="M262.3,144.8 L340,155.1" stroke="#6b6f78" stroke-width="0.9" opacity="0.8" fill="none"/>
<path d="M239.9,152.4 Q296.6,155 343,144.3 Q296.7,133 240.1,134.8 Z" fill="url(#psil)" stroke="#3a3d44" stroke-width="1.3" stroke-linejoin="round"/>
<path d="M256.5,143.7 L328.6,144.2" stroke="#6b6f78" stroke-width="0.9" opacity="0.8" fill="none"/>
<path d="M236.5,153 Q288.1,148.9 328.8,133.7 Q285.6,128.5 234.5,136.6 Z" fill="url(#psil)" stroke="#3a3d44" stroke-width="1.3" stroke-linejoin="round"/>
<path d="M250.4,143 L315.8,135.2" stroke="#6b6f78" stroke-width="0.9" opacity="0.8" fill="none"/>
<path d="M232.9,153.5 Q278.7,144 313.5,125.4 Q274,125.4 229.1,138.5 Z" fill="url(#psil)" stroke="#3a3d44" stroke-width="1.3" stroke-linejoin="round"/>
<path d="M244.2,142.7 L301.9,128.3" stroke="#6b6f78" stroke-width="0.9" opacity="0.8" fill="none"/>
<path d="M229.1,153.9 Q268.7,140.4 297.4,119.7 Q262.2,123.8 223.9,140.5 Z" fill="url(#psil)" stroke="#3a3d44" stroke-width="1.3" stroke-linejoin="round"/>
<path d="M237.8,142.8 L287.4,123.6" stroke="#6b6f78" stroke-width="0.9" opacity="0.8" fill="none"/>
<path d="M225.2,154.2 Q258.3,138.1 280.9,116.5 Q250.5,123.6 218.8,142.6 Z" fill="url(#psil)" stroke="#3a3d44" stroke-width="1.3" stroke-linejoin="round"/>
<path d="M231.4,143.3 L272.7,121" stroke="#6b6f78" stroke-width="0.9" opacity="0.8" fill="none"/>
<path d="M235.1,140.9 Q257.7,152.4 280.3,152 Q264.9,135.3 240.9,127.1 Z" fill="url(#psil)" stroke="#3a3d44" stroke-width="1.1" stroke-linejoin="round"/>
<path d="M244.8,136.9 L274.4,149.5" stroke="#6b6f78" stroke-width="0.9" opacity="0.8" fill="none"/>
<path d="M231.2,142.8 Q253.7,150.2 274.7,145.9 Q258.2,132.2 234.8,128.2 Z" fill="url(#psil)" stroke="#3a3d44" stroke-width="1.1" stroke-linejoin="round"/>
<path d="M239.7,137.2 L268.9,144.4" stroke="#6b6f78" stroke-width="0.9" opacity="0.8" fill="none"/>
<path d="M227.3,144.5 Q249.1,148.2 267.8,140.5 Q250.7,129.7 228.7,129.5 Z" fill="url(#psil)" stroke="#3a3d44" stroke-width="1.1" stroke-linejoin="round"/>
<path d="M234.4,137.6 L262.3,140" stroke="#6b6f78" stroke-width="0.9" opacity="0.8" fill="none"/>
<path d="M223.5,146 Q243.9,146.4 259.9,135.9 Q242.7,127.8 222.5,131 Z" fill="url(#psil)" stroke="#3a3d44" stroke-width="1.1" stroke-linejoin="round"/>
<path d="M228.9,138.1 L254.7,136.3" stroke="#6b6f78" stroke-width="0.9" opacity="0.8" fill="none"/>
<path d="M219.7,147.3 Q238.3,144.9 251.1,132.4 Q234.1,126.7 216.3,132.7 Z" fill="url(#psil)" stroke="#3a3d44" stroke-width="1.1" stroke-linejoin="round"/>
<path d="M223.3,138.8 L246.5,133.4" stroke="#6b6f78" stroke-width="0.9" opacity="0.8" fill="none"/>
<path d="M192.1,180.8 Q178.7,208.6 179,235.9 Q198.2,216.5 207.9,187.2 Z" fill="url(#psil)" stroke="#3a3d44" stroke-width="1.3" stroke-linejoin="round"/>
<path d="M196.6,192.3 L182,228.7" stroke="#6b6f78" stroke-width="0.9" opacity="0.8" fill="none"/>
<path d="M191.6,182.8 Q184.7,217.4 191.1,247.4 Q205.5,220.3 208.4,185.2 Z" fill="url(#psil)" stroke="#3a3d44" stroke-width="1.3" stroke-linejoin="round"/>
<path d="M198.6,194.1 L192.3,238.5" stroke="#6b6f78" stroke-width="0.9" opacity="0.8" fill="none"/>
<path d="M191.5,184.9 Q193.2,220.1 206.7,247.6 Q214.2,217.9 208.5,183.1 Z" fill="url(#psil)" stroke="#3a3d44" stroke-width="1.3" stroke-linejoin="round"/>
<path d="M201.1,194.2 L205.8,238.7" stroke="#6b6f78" stroke-width="0.9" opacity="0.8" fill="none"/>
<path d="M192,186.9 Q202.1,220.7 221.9,244.1 Q221.9,213.5 208,181.1 Z" fill="url(#psil)" stroke="#3a3d44" stroke-width="1.3" stroke-linejoin="round"/>
<path d="M203.5,193.6 L218.8,235.7" stroke="#6b6f78" stroke-width="0.9" opacity="0.8" fill="none"/>
<path d="M193,188.8 Q208.5,215.4 231.3,230.4 Q226,203.6 207,179.2 Z" fill="url(#psil)" stroke="#3a3d44" stroke-width="1.3" stroke-linejoin="round"/>
<path d="M205,191.4 L226.9,223.9" stroke="#6b6f78" stroke-width="0.9" opacity="0.8" fill="none"/>
<path d="M183,124 Q176,158 187,188 Q200,200 213,188 Q224,158 217,124 Q200,112 183,124 Z" fill="url(#psil)" stroke="#3a3d44" stroke-width="1.5" stroke-linejoin="round"/>
<path d="M189,138 Q200,145 211,138" fill="none" stroke="#6b6f78" stroke-width="0.9" opacity="0.85"/>
<path d="M187,149 Q200,156 213,149" fill="none" stroke="#6b6f78" stroke-width="0.9" opacity="0.85"/>
<path d="M185,160 Q200,167 215,160" fill="none" stroke="#6b6f78" stroke-width="0.9" opacity="0.85"/>
<path d="M187,171 Q200,178 213,171" fill="none" stroke="#6b6f78" stroke-width="0.9" opacity="0.85"/>
<path d="M189,182 Q200,189 211,182" fill="none" stroke="#6b6f78" stroke-width="0.9" opacity="0.85"/>
<path d="M213,120 Q217,94 202,86 Q186,79 174,88 Q167,93 164,100 Q162,106 167,109 Q171,111 173,106 L180,112 Q186,122 190,120 Q200,130 213,120 Z" fill="url(#psil)" stroke="#3a3d44" stroke-width="1.5" stroke-linejoin="round"/>
<path d="M174,95 Q178,100 181,106" fill="none" stroke="#6b6f78" stroke-width="1" opacity="0.85"/>
<circle cx="189" cy="96" r="2.8" fill="#3a3d44"/>
<circle cx="188" cy="95" r="1" fill="#f6f8fb"/>
<circle cx="202" cy="72" r="9.5" fill="none" stroke="url(#psil)" stroke-width="5.4"/>
<circle cx="202" cy="72" r="9.5" fill="none" stroke="#3a3d44" stroke-width="1.1" opacity="0.6"/>
</g>
</svg>
